<svg width="234" height="208" viewBox="0 0 234 208" fill="none" xmlns="http://www.w3.org/2000/svg">
<path d="M57.371 151.308C83.1664 164.494 31.5757 132.57 31.5757 132.57L15.9866 111.262C16.7137 121.831 17.7874 137.557 19.3338 160.33C27.2036 276.227 31.5757 138.122 57.371 151.308Z" fill="white"/>
<path d="M15.9866 111.262L31.5757 132.57C31.5757 132.57 83.1664 164.494 57.371 151.308C31.5757 138.122 27.2036 276.227 19.3338 160.33C17.7874 137.557 16.7137 121.831 15.9866 111.262ZM15.9866 111.262C13.0134 68.0426 15.8361 111.056 15.8361 111.056L15.9866 111.262Z" stroke="white"/>
<path d="M234 81.1053C234 125.898 181.617 162.211 117 162.211C52.3827 162.211 0 125.898 0 81.1053C0 36.3121 52.3827 0 117 0C181.617 0 234 36.3121 234 81.1053Z" fill="white"/>
</svg>
